<svg width="221" height="129" viewBox="0 0 221 129" fill="none" xmlns="http://www.w3.org/2000/svg">
<path d="M71.2475 17.8119C73.6202 17.8119 75.7654 18.7861 77.3048 20.3564L68.2789 3.81683V17.8119H71.2475Z" fill="#181818"/>
<path d="M79.7294 119.594V26.2937C79.7294 23.982 78.8046 21.8864 77.3048 20.3564C75.7654 18.7861 73.6202 17.8119 71.2475 17.8119H68.2789H18.6601C13.9757 17.8119 10.1782 21.6093 10.1782 26.2937V119.594C10.1782 124.278 13.9757 128.076 18.6601 128.076H71.2475C75.9319 128.076 79.7294 124.278 79.7294 119.594Z" fill="#181818"/>
<path d="M0 8.48185C0 3.79745 3.79745 0 8.48185 0H61.0693C65.7537 0 69.5512 3.79745 69.5512 8.48185V119.594C69.5512 124.278 65.7537 128.076 61.0693 128.076H8.48185C3.79745 128.076 0 124.278 0 119.594V8.48185Z" fill="url(#paint0_linear_9_191)"/>
<circle cx="34.7756" cy="91.604" r="27.1419" fill="#9C39D9"/>
<circle cx="34.7756" cy="91.604" r="24.5974" fill="#B845FE"/>
<path d="M34.7756 72.0957C24.0015 72.0957 15.2673 80.8298 15.2673 91.604C15.2673 93.9901 15.6957 96.2761 16.4798 98.3894C17.792 81.4981 22.3986 75.3875 40.2888 72.8856C38.5405 72.3715 36.6903 72.0957 34.7756 72.0957Z" fill="white" fill-opacity="0.2"/>
<path d="M34.7756 118.746C49.7656 118.746 61.9175 106.594 61.9175 91.604C61.9175 84.788 59.4051 78.5589 55.2559 73.7921C60.3234 104.132 44.2673 116.925 17.3878 112.446C22.0972 116.379 28.16 118.746 34.7756 118.746Z" fill="black" fill-opacity="0.1"/>
<circle cx="34.7756" cy="31.3828" r="21.2046" fill="#9C39D9"/>
<circle cx="34.7756" cy="31.3828" r="19.2167" fill="#B845FE"/>
<path d="M34.7756 16.142C26.3583 16.142 19.5348 22.9656 19.5348 31.3828C19.5348 33.247 19.8694 35.033 20.482 36.684C21.5072 23.4876 25.106 18.7137 39.0828 16.7592C37.7169 16.3575 36.2714 16.142 34.7756 16.142Z" fill="white" fill-opacity="0.2"/>
<path d="M34.7756 52.5875C46.4866 52.5875 55.9802 43.0938 55.9802 31.3828C55.9802 26.0579 54.0174 21.1913 50.7758 17.4673C54.7348 41.1705 42.191 51.1651 21.1914 47.6656C24.8706 50.7383 29.6071 52.5875 34.7756 52.5875Z" fill="black" fill-opacity="0.1"/>
<path d="M149.281 18.236C146.908 18.236 144.763 19.2102 143.223 20.7805L152.249 4.24092V18.236H149.281Z" fill="#181818"/>
<path d="M140.799 120.018V26.7178C140.799 24.4061 141.723 22.3104 143.223 20.7805C144.763 19.2102 146.908 18.236 149.281 18.236H152.249H201.868C206.552 18.236 210.35 22.0334 210.35 26.7178V120.018C210.35 124.703 206.552 128.5 201.868 128.5H149.281C144.596 128.5 140.799 124.703 140.799 120.018Z" fill="#181818"/>
<path d="M150.977 8.48185C150.977 3.79745 154.774 0 159.459 0H212.046C216.731 0 220.528 3.79745 220.528 8.48185V119.594C220.528 124.278 216.731 128.076 212.046 128.076H159.459C154.774 128.076 150.977 124.278 150.977 119.594V8.48185Z" fill="url(#paint1_linear_9_191)"/>
<circle cx="185.752" cy="91.604" r="27.1419" fill="#9C39D9"/>
<circle cx="185.752" cy="91.604" r="24.5974" fill="#B845FE"/>
<path d="M185.752 72.0957C174.978 72.0957 166.244 80.8298 166.244 91.604C166.244 93.9901 166.673 96.2761 167.457 98.3894C168.769 81.4981 173.375 75.3875 191.266 72.8856C189.517 72.3715 187.667 72.0957 185.752 72.0957Z" fill="white" fill-opacity="0.2"/>
<path d="M185.752 118.746C200.743 118.746 212.894 106.594 212.894 91.604C212.894 84.788 210.382 78.5589 206.233 73.7921C211.3 104.132 195.244 116.925 168.365 112.446C173.074 116.379 179.137 118.746 185.752 118.746Z" fill="black" fill-opacity="0.1"/>
<circle cx="185.752" cy="31.3828" r="21.2046" fill="#9C39D9"/>
<circle cx="185.752" cy="31.3828" r="19.2167" fill="#B845FE"/>
<path d="M185.752 16.142C177.335 16.142 170.512 22.9656 170.512 31.3828C170.512 33.247 170.846 35.033 171.459 36.684C172.484 23.4876 176.083 18.7137 190.06 16.7592C188.694 16.3575 187.248 16.142 185.752 16.142Z" fill="white" fill-opacity="0.2"/>
<path d="M185.752 52.5875C197.463 52.5875 206.957 43.0938 206.957 31.3828C206.957 26.0579 204.994 21.1913 201.753 17.4673C205.712 41.1705 193.168 51.1651 172.168 47.6656C175.847 50.7383 180.584 52.5875 185.752 52.5875Z" fill="black" fill-opacity="0.1"/>
<path d="M73.7921 80.5775H147.584V83.1221H135.285H85.2426H78.033H73.7921V80.5775Z" fill="#484848"/>
<path d="M73.7921 83.1221L78.033 126.804H81.4257L78.033 83.1221H73.7921Z" fill="#484848"/>
<path d="M147.584 83.1221L143.343 126.804H139.95L143.343 83.1221H147.584Z" fill="#484848"/>
<path d="M78.033 83.1221L81.4257 126.804L84.7608 88.6353L85.2426 83.1221H78.033Z" fill="#181818"/>
<path d="M139.95 126.804L143.343 83.1221H135.285L135.874 88.6353L139.95 126.804Z" fill="#181818"/>
<path d="M135.285 83.1221H85.2426L84.7608 88.6353H135.874L135.285 83.1221Z" fill="#181818"/>
<rect x="94.1485" y="75.4884" width="33.0792" height="5.08911" fill="#484848"/>
<defs>
<linearGradient id="paint0_linear_9_191" x1="34.7756" y1="0" x2="34.7756" y2="128.076" gradientUnits="userSpaceOnUse">
<stop stop-color="#484848"/>
<stop offset="1" stop-color="#363636"/>
</linearGradient>
<linearGradient id="paint1_linear_9_191" x1="185.752" y1="0" x2="185.752" y2="128.076" gradientUnits="userSpaceOnUse">
<stop stop-color="#484848"/>
<stop offset="1" stop-color="#363636"/>
</linearGradient>
</defs>
</svg>
