<svg width="176" height="139" viewBox="0 0 176 139" fill="none" xmlns="http://www.w3.org/2000/svg">
<path d="M165.973 78.1611C163.126 85.4116 158.899 91.7084 153.714 96.8662C149.966 100.593 145.719 103.726 141.13 106.193C140.131 106.731 139.116 107.236 138.086 107.71C125.198 113.636 110.035 114.516 95.8181 108.935C81.6015 103.354 71.0858 92.3942 65.6715 79.283C64.9337 77.4964 64.2906 75.6699 63.7458 73.8116C62.5039 69.5753 61.7726 65.1739 61.594 60.7041C61.3019 53.3959 62.4872 45.9051 65.3334 38.6546C76.2879 10.749 107.697 -3.02906 135.488 7.88035C163.279 18.7898 176.927 50.2555 165.973 78.1611Z" fill="#181818"/>
<path d="M95.8181 108.935C81.6015 103.354 71.0858 92.3942 65.6715 79.283C64.9337 77.4964 64.2906 75.6699 63.7458 73.8116L81.3581 133.575C82.3988 137.106 86.4886 138.71 89.6522 136.827L141.13 106.193C140.131 106.731 139.116 107.236 138.086 107.71C125.198 113.636 110.035 114.516 95.8181 108.935Z" fill="#181818"/>
<path d="M172.057 74.436C169.21 81.6865 164.983 87.9833 159.798 93.1412C156.05 96.8682 151.803 100.001 147.214 102.468C146.215 103.005 145.2 103.511 144.17 103.985C131.282 109.911 116.119 110.791 101.902 105.21C87.6855 99.6294 77.1698 88.6691 71.7555 75.5579C71.0177 73.7713 70.3747 71.9448 69.8299 70.0865C68.5879 65.8502 67.8566 61.4488 67.678 56.979C67.3859 49.6709 68.5713 42.18 71.4175 34.9295C82.372 7.02395 113.781 -6.75414 141.572 4.15527C169.363 15.0647 183.011 46.5304 172.057 74.436Z" fill="url(#paint0_linear_9_226)"/>
<path d="M101.902 105.21C87.6855 99.6294 77.1698 88.6691 71.7555 75.5579C71.0177 73.7713 70.3747 71.9448 69.8299 70.0865L87.4422 129.85C88.4828 133.381 92.5727 134.985 95.7363 133.102L147.214 102.468C146.215 103.005 145.2 103.511 144.17 103.985C131.282 109.911 116.119 110.791 101.902 105.21Z" fill="url(#paint1_linear_9_226)"/>
<path d="M139.165 6.07586C113.962 -3.81768 85.5108 8.59299 75.6173 33.7959C70.9105 45.7859 71.2518 58.5111 75.617 69.6235C71.798 32.957 91.498 1.3923 139.165 6.07586Z" fill="white" fill-opacity="0.1"/>
<path d="M156.127 67.943C148.689 86.8912 127.299 96.2219 108.351 88.7836C89.4023 81.3454 80.0716 59.9549 87.5099 41.0067C94.9481 22.0585 116.339 12.7278 135.287 20.166C154.235 27.6043 163.566 48.9947 156.127 67.943Z" fill="#B845FE"/>
<path d="M135.287 20.166C116.339 12.7278 94.9481 22.0585 87.5099 41.0067C83.9712 50.0211 84.2278 59.5883 87.5097 67.943C87.5099 41.0067 102.44 17.3017 135.287 20.166Z" fill="black" fill-opacity="0.1"/>
<path d="M111.37 85.3024C128.778 91.0025 147.51 81.5118 153.21 64.1043C155.922 55.8229 155.196 47.2416 151.814 39.9063C153.21 64.1043 141.026 86.1733 111.37 85.3024Z" fill="white" fill-opacity="0.1"/>
<path d="M85.6399 69.1748C86.7497 74.9195 86.5999 80.6144 85.3839 85.9721C84.5052 89.8435 83.0698 93.539 81.1507 96.9499C80.7329 97.6925 80.2922 98.4216 79.8294 99.136C74.0358 108.079 64.769 114.734 53.5049 116.911C42.2409 119.087 31.1617 116.361 22.4542 110.22C21.2677 109.383 20.1252 108.483 19.0323 107.523C16.5409 105.335 14.307 102.836 12.3962 100.072C9.27214 95.5529 7.01195 90.3236 5.90217 84.5789C1.63087 62.469 16.0182 41.097 38.0372 36.8432C60.0562 32.5895 81.3686 47.0649 85.6399 69.1748Z" fill="#181818"/>
<path d="M53.5049 116.911C42.2409 119.087 31.1617 116.361 22.4542 110.22C21.2677 109.383 20.1252 108.483 19.0323 107.523L52.8792 137.167C55.6485 139.593 59.9616 138.758 61.6258 135.474L81.1507 96.9499C80.7329 97.6925 80.2922 98.4216 79.8294 99.136C74.0358 108.079 64.769 114.734 53.5049 116.911Z" fill="#181818"/>
<path d="M81.3432 65.7953C82.4529 71.54 82.3031 77.2348 81.0871 82.5925C80.2084 86.464 78.773 90.1594 76.8539 93.5704C76.4361 94.3129 75.9954 95.042 75.5326 95.7565C69.7391 104.699 60.4722 111.355 49.2081 113.531C37.9441 115.707 26.865 112.982 18.1574 106.84C16.9709 106.004 15.8285 105.103 14.7356 104.143C12.2441 101.955 10.0102 99.4566 8.09946 96.6926C4.97536 92.1733 2.71517 86.944 1.60538 81.1994C-2.66592 59.0894 11.7214 37.7174 33.7404 33.4637C55.7594 29.21 77.0719 43.6853 81.3432 65.7953Z" fill="url(#paint2_linear_9_226)"/>
<path d="M49.2081 113.531C37.9441 115.707 26.865 112.982 18.1574 106.84C16.9709 106.004 15.8285 105.103 14.7356 104.143L48.5824 133.788C51.3518 136.213 55.6648 135.378 57.329 132.094L76.8539 93.5704C76.4361 94.3129 75.9954 95.042 75.5326 95.7565C69.7391 104.699 60.4722 111.355 49.2081 113.531Z" fill="url(#paint3_linear_9_226)"/>
<path d="M68.6258 68.0812C71.526 83.0941 61.7068 97.6156 46.6938 100.516C31.6809 103.416 17.1594 93.5969 14.2591 78.584C11.3588 63.571 21.1781 49.0495 36.191 46.1492C51.204 43.249 65.7255 53.0682 68.6258 68.0812Z" fill="#B845FE"/>
<path d="M36.191 46.1492C21.1781 49.0495 11.3588 63.571 14.2591 78.584C14.7298 81.0205 15.5066 83.3203 16.542 85.451C16.2015 61.9513 24.8912 53.0214 44.161 45.7731C41.563 45.518 38.885 45.6288 36.191 46.1492Z" fill="black" fill-opacity="0.1"/>
<path d="M45.8513 97.614C58.861 95.0781 67.3517 82.476 64.8159 69.4663C64.4044 67.3549 63.7277 65.3625 62.8271 63.517C63.1562 83.8871 55.6366 91.6405 38.9431 97.9515C41.1955 98.169 43.5169 98.069 45.8513 97.614Z" fill="white" fill-opacity="0.1"/>
<path d="M31.8785 37.9368C13.4835 41.4904 1.45224 59.2832 5.00586 77.6782C5.5826 80.6636 6.5344 83.4814 7.80297 86.0922C4.50571 56.2083 15.0621 45.2323 41.6439 37.4759C38.4607 37.1633 35.1793 37.2991 31.8785 37.9368Z" fill="white" fill-opacity="0.1"/>
<defs>
<linearGradient id="paint0_linear_9_226" x1="138.027" y1="0.380926" x2="95.031" y2="138.264" gradientUnits="userSpaceOnUse">
<stop stop-color="#484848"/>
<stop offset="1" stop-color="#363636"/>
</linearGradient>
<linearGradient id="paint1_linear_9_226" x1="138.027" y1="0.380926" x2="95.031" y2="138.264" gradientUnits="userSpaceOnUse">
<stop stop-color="#484848"/>
<stop offset="1" stop-color="#363636"/>
</linearGradient>
<linearGradient id="paint2_linear_9_226" x1="34.0802" y1="35.242" x2="60.8159" y2="141.326" gradientUnits="userSpaceOnUse">
<stop stop-color="#484848"/>
<stop offset="1" stop-color="#363636"/>
</linearGradient>
<linearGradient id="paint3_linear_9_226" x1="34.0802" y1="35.242" x2="60.8159" y2="141.326" gradientUnits="userSpaceOnUse">
<stop stop-color="#484848"/>
<stop offset="1" stop-color="#363636"/>
</linearGradient>
</defs>
</svg>
