<svg width="136" height="23" viewBox="0 0 136 23" fill="none" xmlns="http://www.w3.org/2000/svg">
<path d="M9.384 18.384C7.72 18.384 6.232 18.08 4.92 17.472C3.624 16.864 2.6 16.016 1.848 14.928C1.096 13.824 0.72 12.544 0.72 11.088C0.72 9.664 1.08 8.416 1.8 7.344C2.52 6.256 3.504 5.408 4.752 4.8C6.016 4.192 7.44 3.888 9.024 3.888C10.672 3.888 12.072 4.248 13.224 4.968C14.392 5.672 15.288 6.672 15.912 7.968C16.552 9.264 16.872 10.792 16.872 12.552H4.68V9.6H14.112L12.504 10.632C12.44 9.928 12.264 9.336 11.976 8.856C11.688 8.36 11.304 7.984 10.824 7.728C10.36 7.472 9.8 7.344 9.144 7.344C8.424 7.344 7.808 7.488 7.296 7.776C6.784 8.064 6.384 8.464 6.096 8.976C5.808 9.472 5.664 10.056 5.664 10.728C5.664 11.592 5.856 12.328 6.24 12.936C6.64 13.528 7.216 13.984 7.968 14.304C8.736 14.624 9.672 14.784 10.776 14.784C11.784 14.784 12.784 14.656 13.776 14.4C14.784 14.128 15.696 13.752 16.512 13.272V16.392C15.568 17.032 14.488 17.528 13.272 17.88C12.072 18.216 10.776 18.384 9.384 18.384ZM26.8389 15.672L25.1589 15.648L29.9109 4.296H35.1429L28.7349 18H23.1429L16.7349 4.296H22.1589L26.8389 15.672ZM43.7199 18.384C42.0559 18.384 40.5679 18.08 39.2559 17.472C37.9599 16.864 36.9359 16.016 36.1839 14.928C35.4319 13.824 35.0559 12.544 35.0559 11.088C35.0559 9.664 35.4159 8.416 36.1359 7.344C36.8559 6.256 37.8399 5.408 39.0879 4.8C40.3519 4.192 41.7759 3.888 43.3599 3.888C45.0079 3.888 46.4079 4.248 47.5599 4.968C48.7279 5.672 49.6239 6.672 50.2479 7.968C50.8879 9.264 51.2079 10.792 51.2079 12.552H39.0159V9.6H48.4479L46.8399 10.632C46.7759 9.928 46.5999 9.336 46.3119 8.856C46.0239 8.36 45.6399 7.984 45.1599 7.728C44.6959 7.472 44.1359 7.344 43.4799 7.344C42.7599 7.344 42.1439 7.488 41.6319 7.776C41.1199 8.064 40.7199 8.464 40.4319 8.976C40.1439 9.472 39.9999 10.056 39.9999 10.728C39.9999 11.592 40.1919 12.328 40.5759 12.936C40.9759 13.528 41.5519 13.984 42.3039 14.304C43.0719 14.624 44.0079 14.784 45.1119 14.784C46.1199 14.784 47.1199 14.656 48.1119 14.4C49.1199 14.128 50.0319 13.752 50.8479 13.272V16.392C49.9039 17.032 48.8239 17.528 47.6079 17.88C46.4079 18.216 45.1119 18.384 43.7199 18.384ZM52.5866 4.296H57.5066L58.3946 9.768V18H53.4986V9.024L52.5866 4.296ZM63.4346 3.888C64.7466 3.888 65.8666 4.152 66.7946 4.68C67.7226 5.208 68.4266 5.952 68.9066 6.912C69.4026 7.872 69.6506 9.008 69.6506 10.32V18H64.7546V11.04C64.7546 10.016 64.4906 9.232 63.9626 8.688C63.4506 8.144 62.7066 7.872 61.7306 7.872C61.0586 7.872 60.4666 8.016 59.9546 8.304C59.4586 8.592 59.0746 9 58.8026 9.528C58.5306 10.056 58.3946 10.68 58.3946 11.4L56.8826 10.608C57.0746 9.152 57.4826 7.928 58.1066 6.936C58.7306 5.928 59.4986 5.168 60.4106 4.656C61.3226 4.144 62.3306 3.888 63.4346 3.888ZM70.7612 7.92V5.784L73.5452 4.656L75.6572 0.599999H78.4412V4.296H84.2012V7.92H78.4412V11.952C78.4412 12.944 78.6412 13.64 79.0412 14.04C79.4412 14.44 80.1692 14.64 81.2252 14.64C81.8972 14.64 82.4892 14.584 83.0012 14.472C83.5292 14.344 84.0092 14.184 84.4412 13.992V17.688C83.9612 17.864 83.3292 18.024 82.5452 18.168C81.7612 18.312 80.9532 18.384 80.1212 18.384C78.6012 18.384 77.3532 18.152 76.3772 17.688C75.4172 17.224 74.7052 16.56 74.2412 15.696C73.7772 14.816 73.5452 13.792 73.5452 12.624V7.92H70.7612Z" fill="#B845FE"/>
<path d="M94.5821 18.384C92.8221 18.384 91.2861 18.088 89.9741 17.496C88.6621 16.888 87.6381 16.04 86.9021 14.952C86.1661 13.848 85.7981 12.584 85.7981 11.16C85.7981 9.704 86.1661 8.432 86.9021 7.344C87.6381 6.256 88.6621 5.408 89.9741 4.8C91.2861 4.192 92.8221 3.888 94.5821 3.888C96.3261 3.888 97.8541 4.192 99.1661 4.8C100.494 5.408 101.526 6.256 102.262 7.344C102.998 8.432 103.366 9.704 103.366 11.16C103.366 12.584 102.998 13.848 102.262 14.952C101.526 16.04 100.494 16.888 99.1661 17.496C97.8541 18.088 96.3261 18.384 94.5821 18.384ZM94.5821 14.76C95.3821 14.76 96.0621 14.616 96.6221 14.328C97.1981 14.04 97.6381 13.624 97.9421 13.08C98.2461 12.536 98.3981 11.896 98.3981 11.16C98.3981 10.392 98.2461 9.744 97.9421 9.216C97.6381 8.672 97.1981 8.256 96.6221 7.968C96.0621 7.68 95.3821 7.536 94.5821 7.536C93.7821 7.536 93.0941 7.68 92.5181 7.968C91.9421 8.256 91.5021 8.672 91.1981 9.216C90.8941 9.744 90.7421 10.384 90.7421 11.136C90.7421 11.888 90.8941 12.536 91.1981 13.08C91.5021 13.624 91.9421 14.04 92.5181 14.328C93.0941 14.616 93.7821 14.76 94.5821 14.76ZM104.688 4.296H109.68L110.496 9.192V18H105.6V8.904L104.688 4.296ZM116.928 4.08V8.256C116.448 8.16 115.992 8.096 115.56 8.064C115.144 8.016 114.76 7.992 114.408 7.992C113.704 7.992 113.056 8.136 112.464 8.424C111.872 8.696 111.392 9.152 111.024 9.792C110.672 10.432 110.496 11.288 110.496 12.36L109.56 11.208C109.688 10.216 109.88 9.288 110.136 8.424C110.392 7.544 110.736 6.768 111.168 6.096C111.616 5.408 112.168 4.872 112.824 4.488C113.48 4.088 114.28 3.888 115.224 3.888C115.496 3.888 115.776 3.904 116.064 3.936C116.352 3.968 116.64 4.016 116.928 4.08ZM123.114 22.344C122.106 22.344 121.21 22.216 120.426 21.96C119.642 21.72 118.882 21.344 118.146 20.832V17.424C118.898 17.904 119.602 18.248 120.258 18.456C120.914 18.664 121.634 18.768 122.418 18.768C123.074 18.768 123.658 18.624 124.17 18.336C124.682 18.048 125.098 17.52 125.418 16.752L130.674 4.296H135.882L129.306 18.264C128.842 19.272 128.274 20.072 127.602 20.664C126.946 21.272 126.234 21.704 125.466 21.96C124.698 22.216 123.914 22.344 123.114 22.344ZM123.282 16.728L117.45 4.296H122.85L128.01 16.728H123.282Z" fill="#E8E8E8"/>
</svg>
