<svg width="223" height="141" viewBox="0 0 223 141" fill="none" xmlns="http://www.w3.org/2000/svg">
<path fill-rule="evenodd" clip-rule="evenodd" d="M157.338 19.9655C152.714 22.5396 148.371 24.9574 144.73 26.622C139.851 28.8522 134.68 28.2775 129.745 26.8786C126.599 25.9867 123.245 24.6541 119.978 23.356C118.244 22.6671 116.535 21.9879 114.893 21.3894C109.953 19.5874 105.29 18.3581 100.862 18.7391C96.5674 19.1087 92.2634 21.0165 88.036 26.0026C77.9906 37.8511 73.1351 48.636 71.0623 55.7372C75.7471 51.3822 81.5639 46.5636 87.4958 42.7436C91.7462 40.0065 96.1625 37.712 100.338 36.5063C104.484 35.3091 108.732 35.0922 112.332 37.0122C126.34 44.483 164.117 60.3052 197.019 60.3052C204.85 60.3052 209.959 57.8181 213.185 54.1877C216.461 50.4999 218.066 45.3254 218.233 39.496C218.399 33.6779 217.121 27.4012 214.853 21.7806C212.578 16.1417 209.381 11.3455 205.865 8.36217C202.601 5.5926 198.406 4.64702 193.408 5.08285C188.372 5.52193 182.722 7.35275 176.865 9.9043C171.026 12.4477 165.132 15.6394 159.61 18.7024C158.846 19.1258 158.088 19.5477 157.338 19.9655ZM192.998 0.386608C198.813 -0.120366 204.4 0.937535 208.915 4.76765C213.177 8.38404 216.756 13.8998 219.225 20.0166C221.7 26.1517 223.132 33.0743 222.945 39.6307C222.758 46.1757 220.945 52.5507 216.709 57.3187C212.421 62.1442 205.923 65.0193 197.019 65.0193C162.981 65.0193 124.39 48.7859 110.114 41.1717C108.057 40.0747 105.234 39.9992 101.646 41.0353C98.0869 42.0629 94.1063 44.0936 90.0481 46.7069C81.9423 51.9269 73.9528 59.1921 69.0869 64.2897L64.8506 68.7277L65.0258 62.5949C65.2016 56.4419 69.4716 40.6095 84.4403 22.9541C89.4054 17.0979 94.8241 14.5272 100.458 14.0424C105.959 13.569 111.432 15.1092 116.509 16.9607C118.443 17.6663 120.286 18.4004 122.073 19.1122C125.165 20.3442 128.089 21.5092 131.031 22.3432C135.554 23.6255 139.399 23.8758 142.77 22.3347C146.226 20.7547 150.377 18.4447 155.023 15.8589C155.777 15.4393 156.544 15.0123 157.323 14.58C162.85 11.5147 168.917 8.22457 174.982 5.58253C181.028 2.94862 187.221 0.890337 192.998 0.386608Z" fill="url(#paint0_linear_9_218)"/>
<path d="M29.8672 42.1474C31.2078 39.3255 34.5822 38.1246 37.4042 39.4651L110.157 74.0262C112.979 75.3668 114.18 78.7412 112.839 81.5631L86.1386 137.769C84.7981 140.591 81.4236 141.792 78.6017 140.451L5.84897 105.89C3.027 104.55 1.82608 101.175 3.16666 98.3534L29.8672 42.1474Z" fill="#181818"/>
<path d="M27.9816 39.319C29.3222 36.497 32.6966 35.2961 35.5185 36.6367L108.271 71.1978C111.093 72.5383 112.294 75.9127 110.954 78.7347L84.253 134.941C82.9124 137.763 79.538 138.964 76.7161 137.623L3.96335 103.062C1.14138 101.721 -0.0595416 98.347 1.28103 95.525L27.9816 39.319Z" fill="url(#paint1_linear_9_218)"/>
<path d="M28.979 41.0556L4.37681 92.8463C4.11174 93.4043 4.70168 93.9824 5.25422 93.7062C5.38332 93.6416 5.48725 93.5359 5.54961 93.4058L30.1588 42.0366C31.5772 39.0722 33.7869 37.7352 37.509 39.1474L36.152 38.5027C32.3236 37.0378 30.4379 37.9806 28.979 41.0556Z" fill="white" fill-opacity="0.1"/>
<path d="M36.6155 57.7894C36.2077 58.6478 35.6405 59.2969 34.9139 59.7366C34.1873 60.1764 33.3378 60.3824 32.3656 60.3548C31.4135 60.32 30.3652 60.0308 29.2206 59.487C28.7165 59.2475 28.2353 58.9772 27.7772 58.6761C27.3326 58.3814 26.9147 58.0659 26.5233 57.7297C26.152 57.3863 25.8141 57.0254 25.5095 56.6469L26.8785 53.7651C27.4311 54.395 28.0137 55.0141 28.6265 55.6225C29.2594 56.2238 29.9438 56.6992 30.6795 57.0487C31.1837 57.2882 31.618 57.4111 31.9825 57.4172C32.3606 57.4298 32.6728 57.3527 32.9191 57.1858C33.1791 57.0253 33.3802 56.7952 33.5226 56.4955C33.6974 56.1276 33.7168 55.7527 33.5809 55.3708C33.4586 54.9954 33.2381 54.5984 32.9193 54.1797C32.6069 53.7474 32.2397 53.2724 31.8177 52.7546C31.5547 52.4292 31.2774 52.0637 30.9858 51.658C30.7007 51.2386 30.4519 50.7781 30.2394 50.2763C30.0469 49.7673 29.9481 49.2194 29.9431 48.6325C29.938 48.0455 30.094 47.4182 30.4112 46.7506C30.8254 45.8785 31.3758 45.2298 32.0622 44.8043C32.7687 44.3718 33.5676 44.1667 34.4587 44.1892C35.3635 44.2182 36.32 44.4722 37.3283 44.9512C38.0913 45.3137 38.7714 45.7453 39.3686 46.2461C39.9793 46.7533 40.5817 47.3485 41.1758 48.0315L39.0286 49.9675C38.4904 49.3778 37.9912 48.8818 37.531 48.4795C37.0708 48.0772 36.5614 47.7433 36.0027 47.4779C35.6212 47.2967 35.2651 47.2026 34.9343 47.1958C34.6035 47.189 34.3114 47.259 34.058 47.4058C33.8181 47.5591 33.627 47.7856 33.4846 48.0854C33.3228 48.426 33.2858 48.7675 33.3737 49.1099C33.4681 49.4386 33.6678 49.8091 33.973 50.2212C34.2782 50.6334 34.6662 51.1351 35.137 51.7261C35.7181 52.4364 36.1769 53.1053 36.5135 53.7328C36.8636 54.3667 37.0588 55.0106 37.099 55.6643C37.1391 56.318 36.978 57.0263 36.6155 57.7894Z" fill="#B845FE"/>
<path d="M42.9662 65.7663L39.88 64.3002L45.589 52.2824L41.624 50.3988L42.8473 47.8235L53.8637 53.0568L52.6403 55.6321L48.6753 53.7485L42.9662 65.7663Z" fill="#B845FE"/>
<path d="M56.6761 72.2792L57.2639 68.2998L51.9499 65.7754L49.2365 68.7451L45.905 67.1624L58.0171 54.9548L61.7982 56.751L60.0076 73.8619L56.6761 72.2792ZM58.3101 61.4569C58.352 61.1929 58.4026 60.8579 58.4619 60.4518C58.5212 60.0458 58.5838 59.6329 58.6495 59.2132C58.7153 58.7936 58.7788 58.4313 58.8401 58.1264C58.6426 58.3665 58.3854 58.6619 58.0685 59.0124C57.7718 59.3558 57.4816 59.6855 57.1978 60.0016C56.9341 60.3106 56.7394 60.527 56.6137 60.651L53.9596 63.5486L57.7612 65.3546L58.3101 61.4569Z" fill="#B845FE"/>
<path d="M64.9012 76.1866L61.8559 74.7399L68.7883 60.1468L77.1477 64.1179L75.9437 66.6522L70.6297 64.1278L68.8432 67.8885L73.7893 70.2382L72.5853 72.7725L67.6392 70.4229L64.9012 76.1866Z" fill="#B845FE"/>
<path d="M76.1184 81.5153L73.0731 80.0686L80.0055 65.4755L88.3649 69.4466L87.1609 71.981L81.8469 69.4566L80.0604 73.2172L85.0065 75.5669L83.8026 78.1013L78.8565 75.7516L76.1184 81.5153Z" fill="#B845FE"/>
<defs>
<linearGradient id="paint0_linear_9_218" x1="140.276" y1="16.2959" x2="188.83" y2="60.6081" gradientUnits="userSpaceOnUse">
<stop stop-color="#B845FE"/>
<stop offset="0.927083" stop-color="#8834BC"/>
</linearGradient>
<linearGradient id="paint1_linear_9_218" x1="29.9665" y1="56.3655" x2="64.8506" y2="137.919" gradientUnits="userSpaceOnUse">
<stop stop-color="#484848"/>
<stop offset="1" stop-color="#2D2D2D"/>
</linearGradient>
</defs>
</svg>
